<svg xmlns="http://www.w3.org/2000/svg" viewBox="0 0 512 512">
  <g class="folder">
    <path fill="#013146" d="M96.1 128.8c-2 14.1-4 28.3-6 42.4-9.4 0-18.9.5-28.3 0-7.9-.4-14.4 1.3-19.3 7.8-1 1.3-2.8 2-4.2 3 .7-9.1 1-18.3 2.3-27.4 2-14.6 14.3-25.5 29-25.9 8.8-.3 17.7 0 26.5.1Z"/>
    <path fill="#c1a568" d="M456.2 131.1c-8.2-.1-16.5-.2-24.7-.4.4-3.9.8-7.7 1.3-12.4h-9.7c-29.1-.1-58.3-.2-87.4-.4-67.2-.6-134.4-1.4-201.5-2-10.2 0-10.3 0-11.9 10.1-2.4 15.1-4.7 30.1-7.1 45.2h-25c2-14.1 4-28.3 6-42.4 1.2-7.3 2-14.7 3.8-21.9 2.3-9.7 6-12.3 15.6-12.6h324c3.9 0 8-.1 11.6 1 5.8 1.8 9 9.4 7.9 17l-2.7 18.9Z"/>
    <path fill="#0c1531" d="M115.2 171.1c2.3-15.1 4.7-30.1 7.1-45.2 1.6-10.1 1.6-10.2 11.9-10.1 67.2.7 134.4 1.4 201.5 2 29.1.3 58.3.3 87.4.4h9.7c-.5 4.7-.9 8.6-1.3 12.4-46.2 0-92.5.6-138.7-.3-22.5-.5-31 7.4-34.1 29.9-1.5 11-1.5 11-12.4 11-43.7 0-87.5-.1-131.2-.2Z"/>
    <path fill="#044972" d="M456.2 131.1c5 .2 10 .1 14.9.6 15.7 1.5 25.2 11.8 24.2 27.9-1 16.6-3.3 33.2-5 49.8-2.6 25.1-5.1 50.1-7.7 75.2-2.6 25-5.5 50.1-8.1 75.1-1 9.5-2 19.1-2.5 28.6-1 21.5-9.6 29.7-31.5 29.5-113.4-1-226.8-2.1-340.3-3.1-20.6-.2-41.2 0-61.9 0-15.1 0-22.9-7.4-21.8-22.3 1.4-20.2 3.9-40.3 5.9-60.4 1.8-18 3.7-36 5.5-54 2.6-25.4 5.1-50.8 7.8-76.2.7-6.6 1.7-13.2 2.6-19.9 1.4-1 3.2-1.7 4.2-3 4.9-6.5 11.4-8.3 19.3-7.8 9.4.5 18.9 0 28.3 0h25c43.7 0 87.5.2 131.2.2 10.9 0 10.9 0 12.4-11 3-22.4 11.6-30.3 34.1-29.9 46.2.9 92.4.3 138.7.3 8.2.1 16.5.2 24.7.4Z"/>
  </g>
  <path class="roar" fill="#fff" d="M134.6 367.7c-9.9 0-19.2-.3-28.3.1-5.4.3-6.7-2.1-6.9-6.7-.9-15.2-1.9-30.5-3-45.7-.3-4.6-5.3-7.4-8.5-4.7-1.4 1.2-1.8 3.7-2.2 5.7-2.8 15-5.9 30-8.2 45-.8 5-2.7 6.5-7.5 6.3-8.8-.3-17.7 0-27.4 0 .2-3.7.1-6.8.6-9.8 7.7-43.3 15.5-86.6 23-130 1-5.8 3-7.9 8.8-7.6 16.3.8 32.8 0 48.9 2.1 21.3 2.7 29.7 15.4 26.5 36.8-.9 6-1.7 12-3.2 17.8-2.2 8.7-5.7 17.2-14 21.9-5.4 3.1-5.9 6.7-5.2 12.2 2.4 18.3 4.3 36.7 6.5 56.6Zm-43.8-80c6.6 2.1 12.9 1.6 16.7-3.7 7.2-9.8 8.4-21.7 7.5-33.4-.5-5.8-6-6.9-11.4-7.2-6-.3-5.9 4-6.6 7.6-2.2 12.1-4.1 24.3-6.1 36.7Zm99.6 84.3h-4.3c-29.6-1.4-43.5-17.5-39-46.7 3.7-24.2 8.2-48.2 13-72.2 4.1-20.7 16.9-33.6 38.1-35.7 10.4-1.1 21.4-.8 31.6 1.5 19 4.2 27.9 17.8 25.7 37.3-3.2 27.4-8.5 54.7-14.4 81.7-5.1 23.6-22.5 34.4-50.7 34.2Zm30-116.2c.2-6.4-1.7-11.3-8.6-12.9-5.9-1.4-12.1 1.7-14.8 7.7-1.3 2.9-1.9 6.1-2.5 9.2-2.8 14.6-5.5 29.2-8.1 43.9-1.7 9.8-3.4 19.5-4.6 29.4-.7 5.8 1.2 10.7 7.7 12.1 6.2 1.4 11.4-.4 14.5-6.1 1.6-3 2.6-6.6 3.2-10 2.9-15.3 5.7-30.7 8.4-46 1.6-9.1 3.2-18.1 4.7-27.2Zm20.7 110.9c2.4-7 4.8-14 7.3-20.9 14.2-38.6 28.5-77.2 42.4-116 2.5-7 5.6-10.3 13.6-9.6 9.5.8 19.2.4 28.8 0 5.4-.2 7.4 1.3 7.4 7.1.3 36.2 1 72.5 1.6 108.7.1 8.5.1 17.1.5 25.6.2 4.6-1.6 6.3-6.1 6.1-7.1-.3-14.2-.3-21.3 0-5 .2-6-2-5.6-6.4.5-5.7 0-11.4.6-17 .5-5.3-1.6-6.5-6.6-6.6-18-.6-17.8-.7-23.3 16.1-5.4 16.5-1.2 13.6-18.3 13.9-6 .1-12.1 0-18.1 0-.7 0-1.3-.4-2.8-.9Zm52.1-53.1c5.1 0 8.3-.2 11.4 0 5.8.5 7.2-2.1 7.1-7.5-.3-18.2-.1-36.4-.1-51.8-5.3 17.2-11.6 37.4-18.4 59.2Zm62.4 54.1c4.2-24.1 8.1-46.5 12-68.8 4.1-23.4 8.6-46.8 12.4-70.3 1-6 2.7-8.7 9.3-8.3 16.3 1 32.8.1 48.9 2.2 20.8 2.6 29.3 15.4 26.2 36-.9 6-1.7 12-3.1 17.8-2.3 9.5-6.3 18.3-15.2 23.4-4.2 2.4-4.8 5.2-4.2 9.6 2.4 19 4.4 38.1 6.7 58.4h-30.8c-5.2 0-4.2-4.2-4.4-6.9-1.2-14.9-2-29.8-3.1-44.6-.4-5.2-4.2-8.1-7.8-5.6-1.6 1.1-2.5 4-2.9 6.2-2.9 15-5.7 30-8.3 45-.6 3.5-1.1 6.1-5.5 6-9.5-.2-19.1 0-30.1 0Zm49-79.9c6.8 2 13.1 1.4 16.9-3.9 7-9.9 8.3-21.8 7.2-33.5-.6-5.8-6.2-6.7-11.6-6.9-5.4-.3-5.6 3.6-6.2 6.8-2.2 12.4-4.2 24.9-6.3 37.5Z"/>
</svg>
