<svg xmlns="http://www.w3.org/2000/svg" viewBox="0 200 1920 640">
  <path class="compress" fill="#060606" d="M187 541.4c1.6-12.1 3.4-21.6 3.9-31.2.7-12.8-4.2-21.4-12.3-24.4-11.4-4.2-26.7-.2-32.9 10.4-4.3 7.3-7.4 15.9-8.9 24.3-6.5 34.8-12.3 69.8-18.1 104.7-1 6-1.2 12.3-.9 18.4.7 13.8 6.8 21.6 17.7 23.6 13.3 2.5 25.3-3.1 29.9-15.8 3.6-10 5.2-20.9 7.5-31.4 1-4.4 1.8-8.9 2.6-13.1 1.9-.3 2.9-.8 3.8-.6q19.9 5 16.1 26c-1 5.5-1.9 11.2-3.5 16.6-10 34.5-42.4 49.7-75.4 35.4-17.5-7.6-23.9-22.7-23.3-39.9.6-18.4 3.7-36.7 6.6-55 3.4-22.3 7.7-44.5 11.7-66.8.9-5 1.9-10.1 3.2-15.1 9.7-35.2 36.3-50.7 71.9-42.1 18.1 4.4 28 14.5 29.2 33 .7 10.6-1.2 21.5-2.8 32.1-.4 2.6-3.8 5.8-6.5 6.8-5.7 2-11.8 2.6-19.5 4.1Zm158.9-23.5c-3.9 22.6-8.5 50.9-13.6 79.1-3 16.6-5.3 33.5-10.2 49.6-10 32.4-34.2 46.6-67.5 41.7-24.1-3.6-38.2-18-37.9-42.5.3-17.3 3.8-34.6 6.5-51.7 3.7-23.3 7.8-46.5 12-69.7 1.3-7 3.2-14 5.6-20.7 10-28.1 28.7-40.8 58.5-40 31.1.8 47.2 17.6 46.6 54.3Zm-24.7.1c.4-19.5-5.9-29.7-17.7-32.6-15.2-3.8-28.6 1.3-35.2 14.9-4 8.2-6.6 17.3-8.3 26.2-5.3 27.7-10.1 55.5-14.8 83.4-1.9 11.1-4 22.4-3.8 33.6.2 15.8 10.1 24.1 25.9 24.2 15.1.1 24.6-5.8 29.5-22 4.8-15.6 7.5-31.9 10.4-48 5.1-27.8 9.7-55.6 13.9-79.7Zm167.7 8.1c-17.4 47.6-34.7 95.3-52.2 142.9-1.7 4.6-3.5 11.7-6.8 12.7-6.5 2-14.3 1.3-21.2.2-1.7-.3-3.4-6.5-3.4-10-.4-38-.5-76-.7-114 0-17.4 0-34.8-2.4-52.6-2.9 15.6-5.9 31.2-8.7 46.8-6.6 37.4-13.3 74.8-19.6 112.2-3.3 19.5-3.1 19.6-25.2 17 3.4-20.1 6.8-40.1 10.3-60.1 8.1-46 16.5-91.9 24.1-138 1.7-10.4 5.2-15.4 16.6-13.7 7.5 1.1 15.3.2 24.4.2v169.7c1.1.3 2.1.5 3.2.8 1.7-3.9 3.5-7.6 4.9-11.6 17.5-49.2 35.2-98.4 52.1-147.8 3.1-8.9 7.3-12.1 16.3-11.2 7.6.7 15.4.2 25.3.2-2.5 15.4-4.7 30.3-7.4 45.1-8.8 50-17.8 100-26.8 150q-3.5 19.5-24.8 16.4c8.6-50.4 17.2-100.9 25.8-151.3.6-4.2 1.1-8.4 2-14.8-2.4 2.6-3.3 3.2-3.6 4-.9 2.3-1.5 4.7-2.2 7.1ZM527 682.7c8.2-46.6 16-91.1 23.8-135.5 3.9-22.2 8-44.4 11.5-66.7 1.2-7.7 3.8-11.6 12.6-10.9 12.3.9 24.7-.3 37 .4 28.1 1.8 41.8 17.8 39.1 45.8-1.2 12.2-3.2 24.4-5.9 36.4-5.8 25.9-22.3 39.4-48.7 41-2 .1-4.1 0-6.2 0q-23.5.2-27.7 24c-3 17.2-6.9 34.2-9 51.5-2.1 17.1-3.9 13.7-17.4 14h-9.2Zm59.3-108.6c19.8 0 28.6-4.8 33-20.7 3.5-12.7 6.1-25.9 7.1-39.1 1.6-19.5-20.7-33.6-38.4-25-1.6.8-3.2 2.8-3.5 4.4-4.5 24.6-9 49.2-12.9 73.9-.3 1.8 3.2 5.2 5.6 6.2 2.6 1.1 6 .2 9.1.3Zm58.1 108.6c11.2-63.4 21.9-124.5 32.9-185.6 1.6-9 1.3-21.2 6.9-25.7 5.8-4.6 17.7-2 26.9-1.5 10.2.5 20.6.8 30.4 3.3 16 4.1 25.7 15.6 26.6 32 1.1 20.1-1.9 40.2-11.7 58.1-3.8 6.9-9.9 14.1-16.7 17.3-9.6 4.4-9.4 10.4-7.9 18.4 3.8 21.7 7.5 43.5 11.2 65.2.9 5.5 1.5 11 2.2 16.2-1.4.9-2.2 1.9-3.1 1.9q-22 1.1-25.4-20.1c-3.3-20.8-7-41.5-9.6-62.4-1-8.1-4.1-10.1-11.7-10-7.1.1-11.1 1.3-12.4 9.4-3.6 23.3-8.8 46.4-11.7 69.8-1.4 11.1-5 15.7-16.2 13.7-2.9-.5-5.9 0-10.6 0Zm43.8-111.1h16.4c20-.2 30.1-7.9 35.1-27.4 1.9-7.4 3-15.1 3.9-22.7 2.6-23.7-6.6-33-30.4-32.9-7.5 0-11.1 1.9-12.3 9.7-3.7 23.7-8.1 47.4-12.6 73.3Zm171.3 89.6c-.8 6.7-.3 11.1-2 14.6-1.3 2.9-5.1 6.5-7.9 6.5-25.6.5-51.2.3-78 .3 12.6-71.5 25-141.6 37.5-212.3h82.1c0 1.7.2 3.1 0 4.4q-3.1 16-20.3 16c-10.8 0-21.6.3-32.4-.1-6.2-.2-9.5 1.6-10.5 8.1-3.3 20.8-7 41.5-10.7 63.3h50.9c.9 1.8 1.8 2.6 1.6 3.3-3 18-3 17.9-21.8 18.1-11.2.1-25.8-3.4-32.8 2.2-6.8 5.6-6 20.6-8.1 31.6-2.7 14.1-5 28.3-7.7 43.9h59.9ZM970 533.9c.7-9.6 2.1-19.2 2-28.8-.2-12.6-6-19.1-16.6-20.4-12-1.5-19.9 2.8-23.5 14.8-2.9 9.7-4.6 20-5.7 30.1-1.1 9.9 3.5 17.9 11.1 24.2 8.3 6.9 16.8 13.6 25.2 20.4 10.1 8.1 17.6 18.5 16.6 31.5-1.4 18.3-2.9 37.1-8.3 54.4-7 22.3-32.1 32.9-57.1 27.7-23.2-4.9-34.3-19.9-34.1-46 0-1.5 0-3.1.1-4.6 3.9-27.8-.2-22.7 26.9-26.5-.3 4.1-.7 7.9-.9 11.7-.5 9.2-1.8 18.5-1.1 27.6.7 8.7 5.9 15.5 15.2 17.3 9.7 1.9 19.1.4 24.1-9.1 8.6-16.3 11.5-34.1 8.4-52.1-1-5.4-6-10.6-10.3-14.8-5.8-5.7-12.7-10.4-19.1-15.6-3.6-2.9-7.2-5.8-10.3-9.2-18.8-20.8-12.2-78.1 10.7-94.4 15.1-10.7 44-12.1 58.4-.8 6.3 5 10.5 13.5 13.8 21.2 2.1 4.8 1.9 11.3 1.1 16.7-3.8 24.9 1.5 21.8-26.7 24.9Zm114.2.4c.8-10.9 2.2-20.6 1.9-30.2-.3-11.6-6.2-17.8-16.1-19.2-11.4-1.6-20 2.2-23.3 12.9-3.4 11.2-6.2 23.1-5.9 34.6.2 7.2 5.4 15.3 10.6 21 7.2 7.9 16.4 14 24.9 20.6 11.8 9.2 18.5 21.3 17.4 36-1.2 15.8-2.8 31.9-7.5 46.9-9.9 31.3-51.6 43-77.3 22.4-5.3-4.2-9.7-10.9-11.7-17.4-2.5-8.1-3.8-17.3-2.8-25.7 3-23.5-2.2-23.3 26.7-24.6-1 9.6-2.6 19.1-2.9 28.7-.5 16.8 6 25.9 18.5 27.3 13.8 1.5 22.8-5.6 27-21.7 1.3-4.9 1.8-10.1 2.9-15.1 4.2-18.8.7-34.7-16.9-45.3-.9-.5-1.6-1.3-2.4-1.9-34.5-27.7-40.6-51.8-23.4-93 11.5-27.6 53.3-37.2 75.8-17.2 10.1 8.9 12.1 21 11.6 33.8-.9 23.5-1.9 24.5-26.9 27.2Z"/>
  <g class="folder">
    <path fill="#013146" d="M1249.6 337.3c-2.9 20.4-5.7 40.8-8.6 61.3-13.6 0-27.3.7-40.9 0-11.4-.6-20.8 1.9-27.9 11.3-1.4 1.9-4 2.9-6.1 4.3 1-13.2 1.5-26.5 3.3-39.6 2.9-21.1 20.7-36.8 41.9-37.5 12.7-.4 25.5 0 38.3.2Z"/>
    <path fill="#c1a568" d="M1770.1 340.7c-11.9-.2-23.8-.4-35.7-.5.6-5.6 1.2-11.1 1.9-18h-14c-42.1-.2-84.3-.2-126.4-.6-97.1-.9-194.2-2-291.3-3-14.8-.1-14.9 0-17.2 14.6-3.4 21.8-6.8 43.5-10.2 65.3-12 0-24.1 0-36.1.1 2.9-20.4 5.7-40.8 8.6-61.3 1.8-10.6 3-21.3 5.4-31.7 3.3-14 8.6-17.8 22.5-18.2h468.3c5.6 0 11.5-.2 16.7 1.5 8.4 2.6 13 13.6 11.5 24.5l-3.9 27.3Z"/>
    <path fill="#0c1531" d="M1277.1 398.5c3.4-21.8 6.7-43.5 10.2-65.3 2.3-14.5 2.4-14.7 17.2-14.6 97.1.9 194.2 2.1 291.3 3 42.1.4 84.3.4 126.4.6h14c-.7 6.8-1.3 12.4-1.9 18-66.8 0-133.6.9-200.4-.4-32.5-.7-44.8 10.7-49.2 43.2-2.2 15.9-2.2 15.9-17.9 15.9-63.2 0-126.4-.2-189.6-.3Z"/>
    <path fill="#044972" d="M1770.1 340.7c7.2.3 14.4.2 21.5.9 22.8 2.2 36.4 17.1 35 40.3-1.4 24-4.7 48-7.2 72-3.7 36.2-7.4 72.5-11.2 108.7-3.8 36.2-7.9 72.3-11.7 108.5-1.4 13.8-2.9 27.5-3.5 41.4-1.4 31-13.9 42.9-45.5 42.6-163.9-1.5-327.9-3-491.8-4.4-29.8-.3-59.6 0-89.4 0-21.9 0-33.1-10.7-31.6-32.2 2.1-29.2 5.6-58.2 8.5-87.3 2.6-26 5.3-52 7.9-78 3.7-36.7 7.4-73.4 11.2-110.1 1-9.6 2.5-19.2 3.7-28.7 2.1-1.4 4.6-2.4 6.1-4.3 7.1-9.4 16.5-11.9 27.9-11.3 13.6.7 27.3 0 40.9 0 12 0 24.1 0 36.1-.1l189.6.3c15.7 0 15.7 0 17.9-15.9 4.4-32.4 16.7-43.8 49.2-43.2 66.8 1.3 133.6.4 200.4.4 11.9.2 23.8.4 35.7.5Z"/>
  </g>
  <path class="roar" fill="#fff" d="M1305.3 682.6c-14.4 0-27.7-.5-40.9.2-7.8.4-9.6-3-10-9.7-1.3-22-2.8-44-4.4-66.1-.5-6.7-7.7-10.8-12.2-6.8-2 1.7-2.6 5.3-3.1 8.2-4.1 21.7-8.5 43.3-11.8 65.1-1.1 7.3-3.9 9.4-10.8 9.2-12.8-.4-25.6-.1-39.6-.1.3-5.4.2-9.9.9-14.1 11.1-62.6 22.4-125.2 33.2-187.9 1.4-8.4 4.3-11.4 12.7-10.9 23.6 1.2 47.4 0 70.7 3 30.8 3.9 42.9 22.3 38.3 53.2-1.3 8.6-2.5 17.3-4.6 25.7-3.2 12.6-8.3 24.8-20.2 31.6-7.8 4.4-8.5 9.7-7.5 17.7 3.5 26.4 6.2 53 9.4 81.8ZM1242 567c9.5 3.1 18.6 2.3 24.1-5.3 10.4-14.2 12.1-31.4 10.8-48.3-.7-8.4-8.6-10-16.5-10.4-8.6-.5-8.6 5.8-9.5 11-3.2 17.5-5.9 35.1-8.9 53.1Zm143.9 121.8h-6.2c-42.9-2.1-62.8-25.3-56.4-67.5 5.3-34.9 11.9-69.7 18.8-104.4 5.9-30 24.4-48.5 55.1-51.7 15.1-1.5 31-1.1 45.7 2.2 27.4 6.1 40.4 25.7 37.1 53.9-4.6 39.6-12.2 79-20.7 118.1-7.4 34.1-32.5 49.7-73.3 49.5Zm43.4-168c.3-9.3-2.5-16.4-12.4-18.7-8.6-2-17.5 2.5-21.3 11.1-1.8 4.2-2.8 8.8-3.7 13.3-4 21.1-8 42.3-11.7 63.5-2.5 14.1-4.9 28.2-6.7 42.5-1.1 8.4 1.7 15.5 11.1 17.5 8.9 2 16.5-.6 21-8.8 2.4-4.4 3.7-9.5 4.7-14.5 4.2-22.1 8.2-44.3 12.2-66.5 2.4-13.1 4.6-26.2 6.9-39.3Zm29.8 160.4c3.5-10.1 6.9-20.2 10.6-30.2 20.5-55.9 41.3-111.6 61.3-167.6 3.6-10.2 8.2-14.9 19.6-13.9 13.8 1.2 27.8.6 41.6.1 7.8-.3 10.6 1.9 10.7 10.2.5 52.4 1.5 104.8 2.3 157.1.2 12.3.2 24.7.7 37 .3 6.7-2.2 9.1-8.9 8.8-10.3-.4-20.6-.4-30.8 0-7.2.3-8.6-2.9-8.1-9.2.7-8.2.1-16.5.9-24.6.8-7.7-2.3-9.4-9.5-9.6-26-.8-25.7-1-33.7 23.2-7.8 23.8-1.7 19.7-26.5 20.1-8.7.1-17.5 0-26.2-.1-1 0-1.9-.6-4-1.3Zm75.3-76.8c7.3 0 11.9-.3 16.4 0 8.3.8 10.4-3.1 10.3-10.9-.4-26.3-.1-52.6-.1-74.8-7.7 24.9-16.8 54-26.6 85.6Zm90.2 78.2c6.1-34.8 11.6-67.2 17.3-99.5 6-33.8 12.4-67.6 17.9-101.6 1.4-8.7 3.9-12.6 13.4-12 23.5 1.4 47.3.2 70.6 3.1 30.1 3.8 42.4 22.3 37.9 52-1.3 8.6-2.5 17.3-4.5 25.7-3.3 13.8-9.1 26.5-22 33.8-6 3.4-6.9 7.5-6.1 13.9 3.4 27.5 6.4 55 9.7 84.3h-44.5c-7.6 0-6-6.1-6.3-9.9-1.7-21.5-2.9-43-4.4-64.5-.5-7.5-6-11.6-11.3-8.1-2.4 1.6-3.5 5.7-4.2 8.9-4.2 21.6-8.2 43.3-12 65.1-.9 5-1.5 8.8-8 8.7-13.8-.3-27.6 0-43.5 0Zm70.9-115.5c9.9 2.9 18.9 2 24.4-5.7 10.1-14.4 12-31.5 10.4-48.4-.8-8.4-9-9.6-16.8-10-7.7-.4-8 5.2-8.9 9.9-3.2 18-6 36-9.1 54.2Z"/>
</svg>
